<?xml version="1.0" encoding="utf-8"?>
<!-- Generator: Adobe Illustrator 22.0.1, SVG Export Plug-In . SVG Version: 6.00 Build 0)  -->
<svg version="1.0" id="Isolationsmodus" xmlns="http://www.w3.org/2000/svg" xmlns:xlink="http://www.w3.org/1999/xlink" x="0px"
	 y="0px" viewBox="0 0 181.8 148.7" style="enable-background:new 0 0 181.8 148.7;" xml:space="preserve">
<style type="text/css">
	.st0{fill:#2EA836;}
</style>
<path class="st0" d="M20.6,128.1H0V49.6C0,39.3,8.3,31,18.6,31h35.1v20.6H20.6V128.1z"/>
<path class="st0" d="M136.3,148.7h-20.6V49.6c0-10.2,8.3-18.6,18.6-18.6h28.9c10.2,0,18.6,8.3,18.6,18.6v59.9
	c0,10.2-8.3,18.6-18.6,18.6h-14.5v-20.6h12.4V51.6h-24.9V148.7z"/>
<path d="M103.3,128H62c-10.2,0-18.6-8.3-18.6-18.6V93c0-6.7,2.6-12.9,7.3-17.6l0.3-0.3l36-33.3c1.2-1.3,1.9-2.9,1.9-4.6V20.6H53.7V0
	h37.2c10.2,0,18.6,8.3,18.6,18.6v18.6c0,7.3-2.8,14.2-8,19.3l-0.3,0.3L65.1,90c-1,1.1-1.2,2.3-1.2,2.9v14.5h39.3V128z"/>
</svg>
